<svg xmlns="http://www.w3.org/2000/svg" xmlns:xlink="http://www.w3.org/1999/xlink" xmlns:lucid="lucid" width="1356" height="1460"><g transform="translate(-2069 -133)" lucid:page-tab-id="0_0"><path d="M0 0h3677.73v2581.67H0z" fill="#fff"/><path d="M2468 165.82c17.67 0 32 17.9 32 40s-14.33 40-32 40h-96c-17.67 0-32-17.9-32-40s14.33-40 32-40z" stroke="#3a414a" stroke-width="2" fill="#fff"/><use xlink:href="#a" transform="matrix(1,0,0,1,2345,170.81988687253784) translate(25.370370370370367 39.65277777777778)"/><use xlink:href="#b" transform="matrix(1,0,0,1,2345,170.81988687253784) translate(75.30864197530865 39.65277777777778)"/><path d="M2468 346.32c17.67 0 32 17.9 32 40s-14.33 40-32 40h-96c-17.67 0-32-17.9-32-40s14.33-40 32-40z" stroke="#3a414a" stroke-width="2" fill="#fff"/><use xlink:href="#c" transform="matrix(1,0,0,1,2345,351.31988687253784) translate(29.75308641975309 39.65277777777778)"/><use xlink:href="#d" transform="matrix(1,0,0,1,2345,351.31988687253784) translate(72.22222222222223 39.65277777777778)"/><path d="M2468 526.82c17.67 0 32 17.9 32 40s-14.33 40-32 40h-96c-17.67 0-32-17.9-32-40s14.33-40 32-40z" stroke="#3a414a" stroke-width="2" fill="#fff"/><use xlink:href="#c" transform="matrix(1,0,0,1,2345,531.8198868725378) translate(13.240740740740733 39.65277777777778)"/><use xlink:href="#e" transform="matrix(1,0,0,1,2345,531.8198868725378) translate(55.709876543209866 39.65277777777778)"/><path d="M2468 706.32c17.67 0 32 17.9 32 40s-14.33 40-32 40h-96c-17.67 0-32-17.9-32-40s14.33-40 32-40z" stroke="#3a414a" stroke-width="2" fill="#fff"/><use xlink:href="#f" transform="matrix(1,0,0,1,2345,711.3198868725378) translate(31.54320987654321 39.65277777777778)"/><use xlink:href="#g" transform="matrix(1,0,0,1,2345,711.3198868725378) translate(66.72839506172839 39.65277777777778)"/><path d="M2421 863.06l-.08 1.05-.26 1.08-.42 1.02-.57.93-.72.84-.83.7-.94.6-1.02.4-1.1.27-224.22.08-.82.06-.76.18-.73.3-.67.4-.6.52-.5.6-.4.67-.3.72-.2.73-.06 219.68h-2l.07-219.92.27-1.1.42-1.02.57-.94.72-.84.83-.7.94-.58 1.02-.42 1.06-.26 1.06-.08 224.06-.08.72-.17.73-.3.67-.4.6-.52.5-.6.4-.67.3-.72.2-.76.06-.82v-50.32h2zm0-71.73h-2v-3h2z" stroke="#3a414a" stroke-width=".05" fill="#3a414a"/><path d="M2421 788.35h-2v-1.03h2z" fill="#3a414a"/><path d="M2421.03 788.37h-2.06v-1.08h2.06zm-2-1.03v.98h1.94v-.98z" stroke="#3a414a" stroke-width=".05" fill="#3a414a"/><path d="M2184.8 1109.14l-4.64-14.26h9.28z" fill="#3a414a"/><path d="M2184.8 1112.38l-6-18.5h12zm-3.26-16.5l3.26 10.03 3.26-10.02z" stroke="#3a414a" stroke-width=".05" fill="#3a414a"/><use xlink:href="#h" transform="matrix(1,0,0,1,2387.4814814814813,791.3275599008688) translate(0 14.222222222222223)"/><path d="M2232.8 1113.38c17.67 0 32 17.9 32 40s-14.33 40-32 40h-96c-17.67 0-32-17.9-32-40s14.33-40 32-40z" stroke="#3a414a" stroke-width="2" fill="#fff"/><use xlink:href="#i" transform="matrix(1,0,0,1,2109.8,1118.379040190006) translate(44.47530864197531 39.65277777777778)"/><use xlink:href="#j" transform="matrix(1,0,0,1,2109.8,1118.379040190006) translate(67.31481481481481 39.65277777777778)"/><path d="M2340.32 220.83h-133.48a6 6 0 0 0-6 6v100" stroke="#3a414a" stroke-width="2" fill="none"/><path d="M2341.48 221.47l.15.36h-1.34v-2h.75z" stroke="#3a414a" stroke-width=".05" fill="#3a414a"/><path d="M2200.84 342.08l-4.63-14.26h9.28z" stroke="#3a414a" stroke-width="2" fill="#3a414a"/><use xlink:href="#k" transform="matrix(1,0,0,1,2217.0518518518516,224.83120244298703) translate(0 14.222222222222223)"/><use xlink:href="#l" transform="matrix(1,0,0,1,2217.0518518518516,224.83120244298703) translate(37.03703703703704 14.222222222222223)"/><use xlink:href="#m" transform="matrix(1,0,0,1,2217.0518518518516,224.83120244298703) translate(83.90123456790124 14.222222222222223)"/><path d="M2232.8 346.32c17.67 0 32 17.9 32 40s-14.33 40-32 40h-96c-17.67 0-32-17.9-32-40s14.33-40 32-40z" stroke="#3a414a" stroke-width="2" fill="#fff"/><use xlink:href="#n" transform="matrix(1,0,0,1,2109.8,351.31988687253784) translate(29.104938271604937 39.65277777777778)"/><use xlink:href="#d" transform="matrix(1,0,0,1,2109.8,351.31988687253784) translate(72.87037037037037 39.65277777777778)"/><path d="M2185.8 1093.88h-2v-634.1h2zm0-655.45h-2v-10.1h2z" stroke="#3a414a" stroke-width=".05" fill="#3a414a"/><path d="M2185.8 428.35h-2v-1.03h2z" fill="#3a414a"/><path d="M2185.82 428.37h-2.05v-1.08h2.05zm-2-1.03v.98h1.95v-.98z" stroke="#3a414a" stroke-width=".05" fill="#3a414a"/><path d="M2184.8 1109.14l-4.64-14.26h9.28z" fill="#3a414a"/><path d="M2184.8 1112.38l-6-18.5h12zm-3.26-16.5l3.26 10.03 3.26-10.02z" stroke="#3a414a" stroke-width=".05" fill="#3a414a"/><use xlink:href="#o" transform="matrix(1,0,0,1,2168.503703703704,438.4321350610583) translate(0 14.222222222222223)"/><path d="M2287.34 1154.38h-20.54v-2h20.54zm97.96-187.17l-45.32.1-.72.16-.73.3-.67.4-.6.52-.5.6-.4.66-.3.73-.2.76-.06.82-.07 176.2-.27 1.1-.42 1-.57.95-.72.83-.83.7-.94.6-1.02.4-1.06.27-1.06.08h-4.5v-2h4.42l.82-.07.76-.17.73-.3.67-.4.6-.52.5-.58.4-.67.3-.73.2-.72.06-176.03.08-1.05.26-1.07.42-1.02.57-.93.72-.84.83-.7.94-.6 1.02-.4 1.1-.27 45.56-.1z" stroke="#3a414a" stroke-width=".05" fill="#3a414a"/><path d="M2266.83 1154.38h-1.1l.07-1-.03-1h1.06z" fill="#3a414a"/><path d="M2266.85 1154.4h-1.14l.08-1-.04-1.05h1.1zm-1.06-2l.03 1-.06.95h1.03v-1.95z" stroke="#3a414a" stroke-width=".05" fill="#3a414a"/><path d="M2400.56 966.2l-14.26 4.65v-9.27z" fill="#3a414a"/><path d="M2403.8 966.2l-18.5 6.02V960.2zm-16.5 3.27l10.03-3.26-10.03-3.25z" stroke="#3a414a" stroke-width=".05" fill="#3a414a"/><use xlink:href="#p" transform="matrix(1,0,0,1,2287.3432463848144,1142.7123735233392) translate(0 14.222222222222223)"/><use xlink:href="#q" transform="matrix(1,0,0,1,2287.3432463848144,1142.7123735233392) translate(22.22222222222222 14.222222222222223)"/><path d="M2532.8 926.2c17.67 0 32 17.92 32 40 0 22.1-14.33 40-32 40h-96c-17.67 0-32-17.9-32-40 0-22.08 14.33-40 32-40z" stroke="#3a414a" stroke-width="2" fill="#fff"/><use xlink:href="#i" transform="matrix(1,0,0,1,2409.8,931.2123735233392) translate(7.808641975308646 39.65277777777778)"/><use xlink:href="#r" transform="matrix(1,0,0,1,2409.8,931.2123735233392) translate(30.648148148148152 39.65277777777778)"/><use xlink:href="#s" transform="matrix(1,0,0,1,2409.8,931.2123735233392) translate(95.3395061728395 39.65277777777778)"/><path d="M2329.9 1152.46l1.06.26 1.02.42.94.57.83.73.72.83.57.94.42 1 .27 1.12.07 49.52.06.82.2.76.3.73.4.67.5.6.6.5.67.4.73.3.72.2 389.35.06v2l-389.6-.07-1.1-.26-1-.42-.95-.58-.83-.7-.72-.84-.57-.94-.42-1.02-.26-1.07-.08-1.05-.07-49.36-.18-.73-.3-.72-.4-.66-.52-.6-.6-.5-.66-.4-.73-.3-.76-.2-.82-.06h-4.43v-2h4.5zm-63.1 1.92v-2h20.54v2z" stroke="#3a414a" stroke-width=".05" fill="#3a414a"/><path d="M2266.83 1154.38h-1.1l.07-1-.03-1h1.06z" fill="#3a414a"/><path d="M2266.85 1154.4h-1.14l.08-1-.04-1.05h1.1zm-1.06-2l.03 1-.06.95h1.03v-1.95z" stroke="#3a414a" stroke-width=".05" fill="#3a414a"/><path d="M2744.6 1213.88l-14.27 4.63v-9.26z" fill="#3a414a"/><path d="M2747.83 1213.88l-18.5 6v-12zm-16.5 3.26l10.03-3.26-10.03-3.26z" stroke="#3a414a" stroke-width=".05" fill="#3a414a"/><path d="M2876.83 1173.88c17.67 0 32 17.9 32 40s-14.33 40-32 40h-96c-17.67 0-32-17.9-32-40s14.33-40 32-40z" stroke="#3a414a" stroke-width="2" fill="#fff"/><use xlink:href="#i" transform="matrix(1,0,0,1,2753.8315547023635,1178.879040190006) translate(14.598765432098766 39.65277777777778)"/><use xlink:href="#t" transform="matrix(1,0,0,1,2753.8315547023635,1178.879040190006) translate(37.43827160493827 39.65277777777778)"/><use xlink:href="#s" transform="matrix(1,0,0,1,2753.8315547023635,1178.879040190006) translate(88.5493827160494 39.65277777777778)"/><path d="M2532.8 1333.88c17.67 0 32 17.9 32 40s-14.33 40-32 40h-96c-17.67 0-32-17.9-32-40s14.33-40 32-40z" stroke="#3a414a" stroke-width="2" fill="#fff"/><use xlink:href="#i" transform="matrix(1,0,0,1,2409.8,1338.879040190006) translate(8.461790123456788 26.52777777777778)"/><use xlink:href="#u" transform="matrix(1,0,0,1,2409.8,1338.879040190006) translate(31.301296296296293 26.52777777777778)"/><use xlink:href="#v" transform="matrix(1,0,0,1,2409.8,1338.879040190006) translate(95.99265432098764 26.52777777777778)"/><use xlink:href="#s" transform="matrix(1,0,0,1,2409.8,1338.879040190006) translate(51.57907407407408 53.19444444444445)"/><path d="M2329.9 1152.46l1.06.26 1.02.42.94.57.83.73.72.83.57.94.42 1 .27 1.12.07 209.52.06.82.2.76.3.73.4.67.5.6.6.5.67.4.73.3.72.2 45.32.06v2l-45.56-.08-1.1-.26-1.02-.42-.94-.58-.83-.7-.72-.84-.57-.94-.42-1.02-.26-1.07-.08-1.05-.07-209.36-.18-.73-.3-.72-.4-.66-.52-.6-.6-.5-.66-.4-.73-.3-.76-.2-.82-.06h-4.43v-2h4.5zm-63.1 1.92v-2h20.54v2z" stroke="#3a414a" stroke-width=".05" fill="#3a414a"/><path d="M2266.83 1154.38h-1.1l.07-1-.03-1h1.06z" fill="#3a414a"/><path d="M2266.85 1154.4h-1.14l.08-1-.04-1.05h1.1zm-1.06-2l.03 1-.06.95h1.03v-1.95z" stroke="#3a414a" stroke-width=".05" fill="#3a414a"/><path d="M2400.56 1373.88l-14.26 4.63v-9.26z" fill="#3a414a"/><path d="M2403.8 1373.88l-18.5 6v-12zm-16.5 3.26l10.03-3.26-10.03-3.26zM2571.6 1374.88h-4.8v-2h4.8zm157.73 0H2712v-2h17.33z" stroke="#3a414a" stroke-width=".05" fill="#3a414a"/><path d="M2566.83 1374.88h-1.1l.07-1-.03-1h1.06z" fill="#3a414a"/><path d="M2566.85 1374.9h-1.14l.08-1-.04-1.05h1.1zm-1.06-2l.03 1-.06.95h1.03v-1.95z" stroke="#3a414a" stroke-width=".05" fill="#3a414a"/><path d="M2744.6 1373.88l-14.27 4.63v-9.26z" fill="#3a414a"/><path d="M2747.83 1373.88l-18.5 6v-12zm-16.5 3.26l10.03-3.26-10.03-3.26z" stroke="#3a414a" stroke-width=".05" fill="#3a414a"/><use xlink:href="#w" transform="matrix(1,0,0,1,2571.6024691358025,1363.2123735233392) translate(0 14.222222222222223)"/><use xlink:href="#x" transform="matrix(1,0,0,1,2571.6024691358025,1363.2123735233392) translate(27.061728395061728 14.222222222222223)"/><use xlink:href="#y" transform="matrix(1,0,0,1,2571.6024691358025,1363.2123735233392) translate(46.27160493827161 14.222222222222223)"/><use xlink:href="#z" transform="matrix(1,0,0,1,2571.6024691358025,1363.2123735233392) translate(102.02469135802471 14.222222222222223)"/><path d="M2876.83 1333.88c17.67 0 32 17.9 32 40s-14.33 40-32 40h-96c-17.67 0-32-17.9-32-40s14.33-40 32-40z" stroke="#3a414a" stroke-width="2" fill="#fff"/><use xlink:href="#i" transform="matrix(1,0,0,1,2753.8315547023635,1338.879040190006) translate(19.19753086419754 39.65277777777778)"/><use xlink:href="#A" transform="matrix(1,0,0,1,2753.8315547023635,1338.879040190006) translate(42.037037037037045 39.65277777777778)"/><path d="M2876.83 1033.38c17.67 0 32 17.9 32 40s-14.33 40-32 40h-96c-17.67 0-32-17.9-32-40s14.33-40 32-40z" stroke="#3a414a" stroke-width="2" fill="#fff"/><use xlink:href="#B" transform="matrix(1,0,0,1,2753.8315547023635,1038.379040190006) translate(43.27160493827161 39.65277777777778)"/><use xlink:href="#C" transform="matrix(1,0,0,1,2753.8315547023635,1038.379040190006) translate(79.62962962962963 39.65277777777778)"/><path d="M3163.9 1033.38c17.68 0 32 17.9 32 40s-14.32 40-32 40h-96c-17.67 0-32-17.9-32-40s14.33-40 32-40z" stroke="#3a414a" stroke-width="2" fill="#fff"/><use xlink:href="#D" transform="matrix(1,0,0,1,3040.9075609330985,1038.379040190006) translate(14.29012345679012 39.65277777777778)"/><use xlink:href="#E" transform="matrix(1,0,0,1,3040.9075609330985,1038.379040190006) translate(85.15432098765433 39.65277777777778)"/><path d="M2485.87 1068.2l.18.72.3.73.4.67.52.6.6.5.66.4.73.3.76.2.82.06h174.8v2h-174.88l-1.06-.08-1.06-.26-1.02-.42-.94-.58-.83-.7-.72-.84-.57-.94-.42-1.02-.27-1.1-.07-42.72h2zm260.96 4.18v2h-16.15v-2z" stroke="#3a414a" stroke-width=".05" fill="#3a414a"/><path d="M2747.83 1073.37l.04 1h-1.06v-2h1.1z" fill="#3a414a"/><path d="M2747.86 1073.37l.03 1.03h-1.12v-2.05h1.14zm-1.03-.97v1.95h1l-.02-.98.07-.97z" stroke="#3a414a" stroke-width=".05" fill="#3a414a"/><path d="M2489.44 1024.7h-9.28l4.64-14.25z" fill="#3a414a"/><path d="M2490.8 1025.7h-12l6-18.5zm-9.26-2h6.52l-3.26-10.02z" stroke="#3a414a" stroke-width=".05" fill="#3a414a"/><use xlink:href="#h" transform="matrix(1,0,0,1,2665.6411014498103,1062.7123735233392) translate(0 14.222222222222223)"/><path d="M2920.52 1074.38h-9.7v-2h9.7zm95.9 0h-35.75v-2h35.74z" stroke="#3a414a" stroke-width=".05" fill="#3a414a"/><path d="M2910.86 1074.38h-1.1l.07-1-.03-1h1.06z" fill="#3a414a"/><path d="M2910.88 1074.4h-1.14l.07-1-.03-1.05h1.1zm-1.06-2l.04 1-.06.95h1.03v-1.95z" stroke="#3a414a" stroke-width=".05" fill="#3a414a"/><path d="M3031.67 1073.38l-14.26 4.63v-9.26z" fill="#3a414a"/><path d="M3034.9 1073.38l-18.5 6v-12zm-16.5 3.26l10.03-3.26-10.02-3.26z" stroke="#3a414a" stroke-width=".05" fill="#3a414a"/><use xlink:href="#F" transform="matrix(1,0,0,1,2920.518098505409,1062.7123735233392) translate(0 14.222222222222223)"/><path d="M2185.87 1524.7l.18.72.3.73.4.67.52.6.6.5.66.4.73.3.76.2.82.06 827.44-.07.73-.17.73-.3.67-.4.6-.52.5-.58.4-.67.3-.73.2-.76.06-.82-.07-286.5-.2-.74-.3-.72-.4-.67-.5-.6-.6-.5-.67-.4-.72-.3-.76-.2-.82-.05h-110.05v-2h110.13l1.06.08 1.07.25 1 .43.95.58.83.7.73.85.57.94.42 1 .27 1.12.06 286.82-.08 1.05-.26 1.07-.42 1.02-.57.94-.72.83-.82.7-.94.6-1 .4-1.12.28-827.76.08-1.06-.08-1.06-.26-1.02-.42-.94-.58-.83-.7-.72-.84-.57-.94-.42-1.02-.27-1.1-.07-312.06h2z" stroke="#3a414a" stroke-width=".05" fill="#3a414a"/><path d="M2907.4 1233.15h-1.5l.6-1.27.23-.73h.67z" fill="#3a414a"/><path d="M2907.42 1233.17h-1.56l.6-1.3.25-.75h.72zm-.67-2l-.23.72-.58 1.22h1.43v-1.95z" stroke="#3a414a" stroke-width=".05" fill="#3a414a"/><path d="M2189.44 1211.88h-9.28l4.64-14.26z" fill="#3a414a"/><path d="M2190.8 1212.88h-12l6-18.5zm-9.26-2h6.52l-3.26-10.03z" stroke="#3a414a" stroke-width=".05" fill="#3a414a"/><use xlink:href="#G" transform="matrix(1,0,0,1,2926.3514414602846,1236.1452704757473) translate(0 14.222222222222223)"/><use xlink:href="#H" transform="matrix(1,0,0,1,2926.3514414602846,1236.1452704757473) translate(36.98765432098766 14.222222222222223)"/><path d="M3116.9 1523.92l-.08 1.05-.25 1.07-.42 1.02-.58.94-.7.83-.85.7-.93.6-1.03.4-1.1.28-920.2.08-1.07-.08-1.06-.26-1.02-.42-.94-.58-.83-.7-.72-.84-.57-.94-.42-1.02-.27-1.1-.07-312.06h2l.07 311.82.18.72.3.73.4.67.52.6.6.5.66.4.73.3.76.2.82.06 919.9-.07.7-.17.74-.3.66-.4.6-.52.5-.58.42-.67.3-.73.18-.76.07-.82v-366.98h2zm0-388.4h-2v-20.14h2z" stroke="#3a414a" stroke-width=".05" fill="#3a414a"/><path d="M3116.9 1115.4h-2v-1.02h2z" fill="#3a414a"/><path d="M3116.93 1115.43h-2.05v-1.08h2.05zm-2-1.03v.98h1.95v-.98z" stroke="#3a414a" stroke-width=".05" fill="#3a414a"/><path d="M2189.44 1211.88h-9.28l4.64-14.26z" fill="#3a414a"/><path d="M2190.8 1212.88h-12l6-18.5zm-9.26-2h6.52l-3.26-10.03z" stroke="#3a414a" stroke-width=".05" fill="#3a414a"/><use xlink:href="#I" transform="matrix(1,0,0,1,3078.672993031864,1135.522567342366) translate(0 14.222222222222223)"/><use xlink:href="#J" transform="matrix(1,0,0,1,3078.672993031864,1135.522567342366) translate(40.93827160493827 14.222222222222223)"/><path d="M2829.83 1331.88h-2v-2.55h2zm0-23.88h-2v-34.62h2z" stroke="#3a414a" stroke-width=".05" fill="#3a414a"/><path d="M2829.83 1332.88h-2v-1.03h2z" fill="#3a414a"/><path d="M2829.86 1332.9h-2.05v-1.07h2.06zm-2-1.02v.97h1.95v-.97z" stroke="#3a414a" stroke-width=".05" fill="#3a414a"/><path d="M2833.47 1272.38h-9.27l4.63-14.26z" fill="#3a414a"/><path d="M2834.84 1273.38h-12.02l6-18.5zm-9.27-2h6.52l-3.27-10.03z" stroke="#3a414a" stroke-width=".05" fill="#3a414a"/><use xlink:href="#K" transform="matrix(1,0,0,1,2801.745134949277,1307.9999999999998) translate(0 14.222222222222223)"/><path d="M2185.87 1524.7l.18.72.3.73.4.67.52.6.6.5.66.4.73.3.76.2.82.06 288.78-.07.72-.17.73-.3.67-.4.6-.52.5-.58.4-.67.3-.73.2-.76.06-.82v-63.02h2v63.1l-.08 1.05-.26 1.07-.42 1.02-.57.94-.72.83-.83.7-.94.6-1.02.4-1.1.28-289.1.08-1.06-.08-1.06-.26-1.02-.42-.94-.58-.83-.7-.72-.84-.57-.94-.42-1.02-.27-1.1-.07-312.06h2zm299.93-85.2h-2v-23.62h2z" stroke="#3a414a" stroke-width=".05" fill="#3a414a"/><path d="M2485.8 1415.9h-2v-1.02h2z" fill="#3a414a"/><path d="M2485.82 1415.93h-2.05v-1.08h2.05zm-2-1.03v.98h1.95v-.98z" stroke="#3a414a" stroke-width=".05" fill="#3a414a"/><path d="M2189.44 1211.88h-9.28l4.64-14.26z" fill="#3a414a"/><path d="M2190.8 1212.88h-12l6-18.5zm-9.26-2h6.52l-3.26-10.03z" stroke="#3a414a" stroke-width=".05" fill="#3a414a"/><use xlink:href="#L" transform="matrix(1,0,0,1,2444.0839506172842,1439.4852802479982) translate(0 14.222222222222223)"/><use xlink:href="#M" transform="matrix(1,0,0,1,2444.0839506172842,1439.4852802479982) translate(23.20987654320988 14.222222222222223)"/><path d="M3197.9 1073.38h110.78a6 6 0 0 0 6-6v-323" stroke="#3a414a" stroke-width="2" fill="none"/><path d="M3197.93 1074.38h-1.08l.06-1-.03-1h1.06z" stroke="#3a414a" stroke-width=".05" fill="#3a414a"/><path d="M3314.68 729.12l4.63 14.27h-9.26z" stroke="#3a414a" stroke-width="2" fill="#3a414a"/><use xlink:href="#N" transform="matrix(1,0,0,1,3198.7275214860547,1046.9333333333332) translate(0 14.222222222222223)"/><use xlink:href="#O" transform="matrix(1,0,0,1,3198.7275214860547,1046.9333333333332) translate(67.55555555555556 14.222222222222223)"/><path d="M3362.68 644.9c17.67 0 32 17.9 32 40 0 22.08-14.33 40-32 40h-96c-17.67 0-32-17.92-32-40 0-22.1 14.33-40 32-40z" stroke="#3a414a" stroke-width="2" fill="#fff"/><use xlink:href="#P" transform="matrix(1,0,0,1,3239.6781387700057,649.8871852779612) translate(12.46913580246914 39.65277777777778)"/><use xlink:href="#Q" transform="matrix(1,0,0,1,3239.6781387700057,649.8871852779612) translate(66.0493827160494 39.65277777777778)"/><path d="M2998.4 492.35c17.68 0 32 17.9 32 40s-14.32 40-32 40h-96c-17.67 0-32-17.9-32-40s14.33-40 32-40z" stroke="#3a414a" stroke-width="2" fill="#fff"/><use xlink:href="#R" transform="matrix(1,0,0,1,2875.40653029689,497.3468386789066) translate(1.4506172839506206 39.65277777777778)"/><use xlink:href="#S" transform="matrix(1,0,0,1,2875.40653029689,497.3468386789066) translate(57.50000000000001 39.65277777777778)"/><path d="M3315.68 642.9h-2v-6.16h2zm-5.94-438l1.1.26 1.02.42.93.57.83.72.7.83.6.94.4 1.02.27 1.06.08 1.06V615.4h-2V211.86l-.07-.82-.17-.76-.3-.73-.4-.67-.52-.6-.58-.5-.67-.4-.73-.3-.72-.2-790-.06v-2z" stroke="#3a414a" stroke-width=".05" fill="#3a414a"/><path d="M3315.68 643.9h-2v-1.04h2z" fill="#3a414a"/><path d="M3315.7 643.9h-2.05v-1.06h2.05zm-2-1v.96h1.95v-.97z" stroke="#3a414a" stroke-width=".05" fill="#3a414a"/><path d="M2518.5 210.46l-14.26-4.64 14.26-4.64z" fill="#3a414a"/><path d="M2519.5 211.83l-18.5-6 18.5-6.02zm-12.03-6l10.03 3.25v-6.52z" stroke="#3a414a" stroke-width=".05" fill="#3a414a"/><use xlink:href="#T" transform="matrix(1,0,0,1,3241.96208938729,615.4035616291209) translate(0 14.222222222222223)"/><use xlink:href="#x" transform="matrix(1,0,0,1,3241.96208938729,615.4035616291209) translate(40.93827160493827 14.222222222222223)"/><use xlink:href="#U" transform="matrix(1,0,0,1,3241.96208938729,615.4035616291209) translate(60.14814814814815 14.222222222222223)"/><use xlink:href="#V" transform="matrix(1,0,0,1,3241.96208938729,615.4035616291209) translate(103.06172839506173 14.222222222222223)"/><path d="M2945.46 204.9l1.1.26 1.03.42.92.57.84.72.7.83.6.94.4 1.02.26 1.06.1 1.06v257.7h-2V211.86l-.08-.82-.18-.76-.3-.73-.4-.67-.52-.6-.6-.5-.66-.4-.73-.3-.72-.2-425.73-.06v-2z" stroke="#3a414a" stroke-width=".05" fill="#3a414a"/><path d="M2951.4 491.35h-2v-.54h2z" fill="#3a414a"/><path d="M2951.43 491.37h-2.05v-.56h.05v.52h1.95v-.5h.05z" stroke="#3a414a" stroke-width=".05" fill="#3a414a"/><path d="M2518.5 210.46l-14.26-4.64 14.26-4.64z" fill="#3a414a"/><path d="M2519.5 211.83l-18.5-6 18.5-6.02zm-12.03-6l10.03 3.25v-6.52z" stroke="#3a414a" stroke-width=".05" fill="#3a414a"/><use xlink:href="#T" transform="matrix(1,0,0,1,2877.6904809141743,469.4750333979391) translate(0 14.222222222222223)"/><use xlink:href="#x" transform="matrix(1,0,0,1,2877.6904809141743,469.4750333979391) translate(40.93827160493827 14.222222222222223)"/><use xlink:href="#U" transform="matrix(1,0,0,1,2877.6904809141743,469.4750333979391) translate(60.14814814814815 14.222222222222223)"/><use xlink:href="#V" transform="matrix(1,0,0,1,2877.6904809141743,469.4750333979391) translate(103.06172839506173 14.222222222222223)"/><path d="M2392.9 247.82v79" stroke="#3a414a" stroke-width="2" stroke-linejoin="round" fill="none"/><path d="M2393.9 247.85h-2v-1.03h2z" stroke="#3a414a" stroke-width=".05" fill="#3a414a"/><path d="M2392.9 342.08l-4.64-14.26h9.27z" stroke="#3a414a" stroke-width="2" fill="#3a414a"/><use xlink:href="#W" transform="matrix(1,0,0,1,2269.682809406005,268.08857480322894) translate(0 14.222222222222223)"/><use xlink:href="#X" transform="matrix(1,0,0,1,2269.682809406005,268.08857480322894) translate(39.85185185185185 14.222222222222223)"/><use xlink:href="#m" transform="matrix(1,0,0,1,2269.682809406005,268.08857480322894) translate(74.81481481481481 14.222222222222223)"/><path d="M2443.78 344.32v-79" stroke="#3a414a" stroke-width="2" stroke-linejoin="round" fill="none"/><path d="M2444.78 345.32h-2v-1.03h2z" stroke="#3a414a" stroke-width=".05" fill="#3a414a"/><path d="M2443.78 250.06l4.63 14.26h-9.26z" stroke="#3a414a" stroke-width="2" fill="#3a414a"/><use xlink:href="#Y" transform="matrix(1,0,0,1,2451.779002391329,305.5409037046239) translate(0 14.222222222222223)"/><path d="M2394.56 427.82v79" stroke="#3a414a" stroke-width="2" stroke-linejoin="round" fill="none"/><path d="M2394.56 427.85v-1.03" stroke="#3a414a" stroke-width="2" fill="none"/><path d="M2394.56 522.08l-4.64-14.26h9.27z" stroke="#3a414a" stroke-width="2" fill="#3a414a"/><use xlink:href="#Z" transform="matrix(1,0,0,1,2354.063014618449,448.08857480322894) translate(0 14.222222222222223)"/><path d="M2445.44 524.32v-79" stroke="#3a414a" stroke-width="2" stroke-linejoin="round" fill="none"/><path d="M2445.44 524.3v1.02" stroke="#3a414a" stroke-width="2" fill="none"/><path d="M2445.44 430.06l4.64 14.26h-9.27z" stroke="#3a414a" stroke-width="2" fill="#3a414a"/><use xlink:href="#Y" transform="matrix(1,0,0,1,2453.4431582210564,485.5409037046241) translate(0 14.222222222222223)"/><path d="M2394.56 608.82v79" stroke="#3a414a" stroke-width="2" stroke-linejoin="round" fill="none"/><path d="M2394.56 608.85v-1.03" stroke="#3a414a" stroke-width="2" fill="none"/><path d="M2394.56 703.08l-4.64-14.26h9.27z" stroke="#3a414a" stroke-width="2" fill="#3a414a"/><use xlink:href="#Z" transform="matrix(1,0,0,1,2354.06301461845,629.088574803229) translate(0 14.222222222222223)"/><path d="M2445.44 705.32v-79" stroke="#3a414a" stroke-width="2" stroke-linejoin="round" fill="none"/><path d="M2445.44 705.3v1.02" stroke="#3a414a" stroke-width="2" fill="none"/><path d="M2445.44 611.06l4.64 14.26h-9.27z" stroke="#3a414a" stroke-width="2" fill="#3a414a"/><g><use xlink:href="#Y" transform="matrix(1,0,0,1,2453.4431582210564,666.5409037046239) translate(0 14.222222222222223)"/></g><path d="M2167.47 344.32v-149.9a6 6 0 0 1 6-6h150.18" stroke="#3a414a" stroke-width="2" fill="none"/><path d="M2168.47 345.32h-2v-1.03h2z" stroke="#3a414a" stroke-width=".05" fill="#3a414a"/><path d="M2338.9 188.4l-14.25 4.64v-9.27z" stroke="#3a414a" stroke-width="2" fill="#3a414a"/><g><use xlink:href="#Y" transform="matrix(1,0,0,1,2122.972839506173,316.5333333333333) translate(0 14.222222222222223)"/></g><path d="M2185.87 1524.7l.18.72.3.73.4.67.52.6.6.5.66.4.73.3.76.2.82.06 632.8-.07.74-.17.72-.3.67-.4.6-.52.5-.58.4-.67.3-.73.2-.76.06-.82v-63.9h2v63.98l-.08 1.05-.26 1.07-.43 1.02-.57.94-.72.83-.83.7-.94.6-1 .4-1.1.28-633.14.08-1.06-.08-1.06-.26-1.02-.42-.94-.58-.83-.7-.72-.84-.57-.94-.42-1.02-.27-1.1-.07-312.06h2zm643.96-86.1h-2v-22.72h2z" stroke="#3a414a" stroke-width=".05" fill="#3a414a"/><path d="M2829.83 1415.9h-2v-1.02h2z" fill="#3a414a"/><path d="M2829.86 1415.93h-2.05v-1.08h2.06zm-2-1.03v.98h1.95v-.98z" stroke="#3a414a" stroke-width=".05" fill="#3a414a"/><path d="M2189.44 1211.88h-9.28l4.64-14.26z" fill="#3a414a"/><path d="M2190.8 1212.88h-12l6-18.5zm-9.26-2h6.52l-3.26-10.03z" stroke="#3a414a" stroke-width=".05" fill="#3a414a"/><g><use xlink:href="#aa" transform="matrix(1,0,0,1,2807.6463695171783,1438.6042875552523) translate(0 14.222222222222223)"/></g><path d="M2733.2 492.35c17.68 0 32 17.9 32 40s-14.32 40-32 40h-96c-17.67 0-32-17.9-32-40s14.33-40 32-40z" stroke="#3a414a" stroke-width="2" fill="#fff"/><g><use xlink:href="#ab" transform="matrix(1,0,0,1,2610.203265148445,497.3468386789066) translate(28.51851851851852 39.65277777777778)"/><use xlink:href="#d" transform="matrix(1,0,0,1,2610.203265148445,497.3468386789066) translate(73.45679012345678 39.65277777777778)"/></g><path d="M2872.3 514.17h-91.5v-2h91.5z" stroke="#3a414a" stroke-width=".05" fill="#3a414a"/><path d="M2872.82 514.17h-.55v-2h1.5z" fill="#3a414a"/><path d="M2872.84 514.2h-.6v-2.05h1.56zm-.55-2v1.95h.5l.92-1.95z" stroke="#3a414a" stroke-width=".05" fill="#3a414a"/><path d="M2779.8 517.8l-14.26-4.63 14.26-4.63z" fill="#3a414a"/><path d="M2780.8 519.18l-18.5-6 18.5-6.02zm-12.03-6l10.03 3.25v-6.52z" stroke="#3a414a" stroke-width=".05" fill="#3a414a"/><g><use xlink:href="#ac" transform="matrix(1,0,0,1,2791.402017219868,487.8393413368917) translate(0 14.222222222222223)"/><use xlink:href="#ad" transform="matrix(1,0,0,1,2791.402017219868,487.8393413368917) translate(36.98765432098766 14.222222222222223)"/></g><path d="M2763.13 551.9h91.84" stroke="#3a414a" stroke-width="2" fill="none"/><path d="M2763.16 552.9h-1.5l.94-2h.56z" stroke="#3a414a" stroke-width=".05" fill="#3a414a"/><path d="M2870.23 551.9l-14.26 4.65v-9.27z" stroke="#3a414a" stroke-width="2" fill="#3a414a"/><g><use xlink:href="#Y" transform="matrix(1,0,0,1,2774.8012232944543,555.9142420678213) translate(0 14.222222222222223)"/></g><path d="M3315.68 744.4l-.08 446.24-.26 1.1-.42 1.02-.58.94-.7.83-.85.72-.94.57-1.02.42-1.07.26-1.05.08h-188.66l-.36-2.18-1.46-2-2.4-.8-1.12.18-2 1.46-1.1 3.34H2907.3v-2h202.9l.84-2.57 2.9-2.1 2.07-.35 3.48 1.14 2.12 2.9.16.98h186.88l.82-.06.76-.2.73-.3.67-.4.6-.5.5-.6.4-.67.3-.73.18-.72.08-446z" stroke="#3a414a" stroke-width=".05" fill="#3a414a"/><path d="M2907.3 1196.58h-.62l-.8-2h1.43z" fill="#3a414a"/><path d="M2907.33 1196.6h-.66l-.83-2.04h1.5zm-1.42-2l.8 1.96h.58v-1.95z" stroke="#3a414a" stroke-width=".05" fill="#3a414a"/><path d="M3319.3 743.4h-9.26l4.64-14.28z" fill="#3a414a"/><path d="M3320.7 744.4h-12.03l6-18.5zm-9.28-2h6.52l-3.26-10.04z" stroke="#3a414a" stroke-width=".05" fill="#3a414a"/><g><use xlink:href="#N" transform="matrix(1,0,0,1,2917.2246913580243,1170.246687754874) translate(0 14.222222222222223)"/><use xlink:href="#O" transform="matrix(1,0,0,1,2917.2246913580243,1170.246687754874) translate(67.55555555555556 14.222222222222223)"/></g><path d="M2823.93 965.3l1.07.25 1 .42.95.58.83.7.72.85.57.93.42 1.02.26 1.1.07 42.73h-2l-.07-42.5-.18-.7-.3-.74-.4-.66-.52-.6-.6-.5-.66-.42-.72-.3-.77-.18-.8-.07h-197.52v-2h197.6zm-257.13 1.9v-2h12.16v2z" stroke="#3a414a" stroke-width=".05" fill="#3a414a"/><path d="M2566.83 967.2h-1.1l.07-.97-.03-1.02h1.06z" fill="#3a414a"/><path d="M2566.85 967.24h-1.14l.08-1-.04-1.05h1.1zm-1.06-2l.03 1-.06.95h1.03v-1.96z" stroke="#3a414a" stroke-width=".05" fill="#3a414a"/><path d="M2828.83 1029.14l-4.63-14.26h9.27z" fill="#3a414a"/><path d="M2828.83 1032.38l-6-18.5h12zm-3.26-16.5l3.26 10.03 3.26-10.02z" stroke="#3a414a" stroke-width=".05" fill="#3a414a"/><g><use xlink:href="#ae" transform="matrix(1,0,0,1,2578.962183756733,955.5457068566726) translate(0 14.222222222222223)"/></g><defs><path fill="#3a414a" d="M126-118c4-37-42-32-68-25v131l24 4v8H8C5-13 21-9 28-12v-141c-7-3-23 1-20-12h48l1 13c22-15 77-30 92 2 32-22 104-36 104 29v109c8 3 24-2 21 12h-75v-8l25-4v-106c3-39-45-31-72-24 7 37 1 88 3 130l25 4v8h-78v-8l24-4v-106" id="af"/><path fill="#3a414a" d="M32-163c41-10 102-14 102 39v112c8 3 24-2 21 12h-45l-4-17C83 13 3 13 13-46c-2-50 45-50 92-51 4-36-5-70-42-56-6 2-12 4-16 6-4 7 0 23-15 20v-36zM42-47c0 41 41 33 63 22v-59c-34 1-63-1-63 37" id="ag"/><path fill="#3a414a" d="M47-200c-23 0-25-39 0-38 13 0 18 7 20 19-1 11-8 19-20 19zM65-12l28 4v8H8v-8l28-4v-141l-24-4v-8h53v153" id="ah"/><path fill="#3a414a" d="M125-118c4-37-41-34-68-26v132l23 4v8H8C5-13 21-9 28-12v-141c-7-3-23 1-20-12h47l2 13c31-23 98-29 98 31v109c7 3 23-1 20 12h-72v-8l22-4v-106" id="ai"/><g id="a"><use transform="matrix(0.06172839506172839,0,0,0.06172839506172839,0,0)" xlink:href="#af"/><use transform="matrix(0.06172839506172839,0,0,0.06172839506172839,17.28395061728395,0)" xlink:href="#ag"/><use transform="matrix(0.06172839506172839,0,0,0.06172839506172839,27.098765432098766,0)" xlink:href="#ah"/><use transform="matrix(0.06172839506172839,0,0,0.06172839506172839,33.27160493827161,0)" xlink:href="#ai"/></g><path fill="#3a414a" d="M84-170c49 0 66 33 63 87H46c-8 60 38 80 95 63v10C128-2 108 4 88 4 34 4 14-29 14-84c-1-54 22-86 70-86zm33 73c12-57-57-82-69-24-1 7-2 15-2 24h71" id="aj"/><path fill="#3a414a" d="M124-13C89 8 26 15 26-45v-108c-8-3-24 2-21-12h50v118c-3 37 42 32 69 25v-131l-25-4v-8h54v153c8 3 24-2 21 12h-48" id="ak"/><g id="b"><use transform="matrix(0.06172839506172839,0,0,0.06172839506172839,0,0)" xlink:href="#af"/><use transform="matrix(0.06172839506172839,0,0,0.06172839506172839,17.28395061728395,0)" xlink:href="#aj"/><use transform="matrix(0.06172839506172839,0,0,0.06172839506172839,27.098765432098766,0)" xlink:href="#ai"/><use transform="matrix(0.06172839506172839,0,0,0.06172839506172839,38.20987654320987,0)" xlink:href="#ak"/></g><path fill="#3a414a" d="M240-154L185 4h-14l-41-109L90 4H77L20-153c-7-3-23 1-20-12h79v8l-27 4L91-41l40-108h14l40 109 38-113-28-4v-8h63v8" id="al"/><g id="c"><use transform="matrix(0.06172839506172839,0,0,0.06172839506172839,0,0)" xlink:href="#ai"/><use transform="matrix(0.06172839506172839,0,0,0.06172839506172839,11.11111111111111,0)" xlink:href="#aj"/><use transform="matrix(0.06172839506172839,0,0,0.06172839506172839,20.925925925925924,0)" xlink:href="#al"/></g><path fill="#3a414a" d="M141-152c28 39 5 97-54 97-9 0-20-2-27-3L49-35c29 22 130-14 124 52-4 45-38 57-88 61C21 83-8 26 45-2 33-6 22-15 21-31l28-31c-19-9-28-26-28-51-2-51 53-65 100-52l38-20 7 8zM85 64c35 0 61-11 61-42 0-35-57-17-89-21-9 8-16 19-17 34 0 25 19 29 45 29zM52-113c1 26 7 46 35 44 28-1 34-16 35-44 0-26-6-43-34-43s-36 17-36 43" id="am"/><g id="d"><use transform="matrix(0.06172839506172839,0,0,0.06172839506172839,0,0)" xlink:href="#am"/><use transform="matrix(0.06172839506172839,0,0,0.06172839506172839,11.11111111111111,0)" xlink:href="#ag"/><use transform="matrix(0.06172839506172839,0,0,0.06172839506172839,20.925925925925924,0)" xlink:href="#af"/><use transform="matrix(0.06172839506172839,0,0,0.06172839506172839,38.20987654320987,0)" xlink:href="#aj"/></g><path fill="#3a414a" d="M45-84c0 64 52 80 104 63 1 25-30 25-55 25-56 0-80-32-80-88 0-76 62-98 131-80v46h-10c-5-15-4-31-23-35-47-10-67 21-67 69" id="an"/><path fill="#3a414a" d="M126-119c3-38-42-31-69-25v132l23 4v8H7v-8l21-4v-226l-24-4v-8h53l-1 98c31-22 99-31 99 31v109c7 3 23-1 20 12h-71v-8l22-4v-107" id="ao"/><path fill="#3a414a" d="M57-145c16-10 35-24 60-25v45c-19 1-8-30-40-17l-20 6v124l29 4v8H7v-8l21-4v-141c-8-3-24 2-21-12h48" id="ap"/><path fill="#3a414a" d="M54-38c-1 25 24 26 44 20v12C71 10 25 9 25-35v-115H4c-2-14 14-10 21-15l18-38h11v38h38v15H54v112" id="aq"/><g id="e"><use transform="matrix(0.06172839506172839,0,0,0.06172839506172839,0,0)" xlink:href="#an"/><use transform="matrix(0.06172839506172839,0,0,0.06172839506172839,9.814814814814815,0)" xlink:href="#ao"/><use transform="matrix(0.06172839506172839,0,0,0.06172839506172839,20.925925925925924,0)" xlink:href="#ag"/><use transform="matrix(0.06172839506172839,0,0,0.06172839506172839,30.74074074074074,0)" xlink:href="#ap"/><use transform="matrix(0.06172839506172839,0,0,0.06172839506172839,38.08641975308642,0)" xlink:href="#ag"/><use transform="matrix(0.06172839506172839,0,0,0.06172839506172839,47.901234567901234,0)" xlink:href="#an"/><use transform="matrix(0.06172839506172839,0,0,0.06172839506172839,57.71604938271605,0)" xlink:href="#aq"/><use transform="matrix(0.06172839506172839,0,0,0.06172839506172839,63.8888888888889,0)" xlink:href="#aj"/><use transform="matrix(0.06172839506172839,0,0,0.06172839506172839,73.70370370370371,0)" xlink:href="#ap"/></g><g id="f"><use transform="matrix(0.06172839506172839,0,0,0.06172839506172839,0,0)" xlink:href="#ah"/><use transform="matrix(0.06172839506172839,0,0,0.06172839506172839,6.172839506172839,0)" xlink:href="#ai"/><use transform="matrix(0.06172839506172839,0,0,0.06172839506172839,17.28395061728395,0)" xlink:href="#ah"/><use transform="matrix(0.06172839506172839,0,0,0.06172839506172839,23.456790123456788,0)" xlink:href="#aq"/></g><path fill="#3a414a" d="M65-12l28 4v8H7v-8l28-4v-226l-28-4v-8h58v238" id="ar"/><path fill="#3a414a" d="M164-154L98 4H85L17-153c-7-3-20 0-17-12h77v8l-26 4L99-38l46-115-26-4v-8h61v8" id="as"/><path fill="#3a414a" d="M41-130c7 48 86 23 86 84 0 56-69 57-112 41v-40c20 0 9 29 31 31 35 19 77-26 41-50-27-18-72-13-72-59 0-50 58-52 100-41v36c-19 1-8-25-28-25-21-7-50-1-46 23" id="at"/><g id="g"><use transform="matrix(0.06172839506172839,0,0,0.06172839506172839,0,0)" xlink:href="#ar"/><use transform="matrix(0.06172839506172839,0,0,0.06172839506172839,6.172839506172839,0)" xlink:href="#aj"/><use transform="matrix(0.06172839506172839,0,0,0.06172839506172839,15.987654320987653,0)" xlink:href="#as"/><use transform="matrix(0.06172839506172839,0,0,0.06172839506172839,27.098765432098766,0)" xlink:href="#aj"/><use transform="matrix(0.06172839506172839,0,0,0.06172839506172839,36.91358024691358,0)" xlink:href="#ar"/><use transform="matrix(0.06172839506172839,0,0,0.06172839506172839,43.086419753086425,0)" xlink:href="#at"/></g><path fill="#333" d="M109-18c15 0 31-2 42-6v14c-11 9-31 13-51 13-59 0-86-28-88-86-3-75 66-101 135-80v48h-13c-3-20-7-40-34-37-51 7-55 138 9 134" id="au"/><path fill="#333" d="M90-170c54-1 76 32 76 87 1 56-23 87-77 87-53 0-75-32-75-87s23-86 76-87zM89-14c28-2 26-38 26-69s3-69-26-69c-27 0-24 39-24 69s-3 66 24 69" id="av"/><path fill="#333" d="M127-114c3-31-26-38-50-25v123l15 4V0H10v-12l16-4v-133l-16-5v-11h64l2 14c31-23 102-32 102 30v105l17 4V0h-82v-12l14-4v-98" id="aw"/><path fill="#333" d="M78-41c-2 24 21 26 40 20C122 3 98 2 77 4 5 10 32-84 27-147H6v-11l25-7 21-38h26v38h35v18H78v106" id="ax"/><path fill="#333" d="M77-16l18 4V0H8v-12l18-4v-133l-17-5v-11h68v149zM51-196c-16 0-27-10-27-27s10-27 27-27 27 11 27 27c0 17-10 27-27 27" id="ay"/><path fill="#333" d="M73-51c-3 31 27 38 51 25v-123l-16-5v-11h66v149l17 4V0h-65l-2-14C94 9 22 18 22-44v-105l-17-5v-11h68v114" id="az"/><path fill="#333" d="M12-83c0-55 22-85 75-86 52-1 66 33 63 88H64c-1 37 6 64 44 63 14 0 28-4 39-6 3 28-28 25-55 27-57 4-80-31-80-86zm90-17c2-26 0-63-27-48-10 9-11 28-11 48h38" id="aA"/><g id="h"><use transform="matrix(0.04938271604938272,0,0,0.04938271604938272,0,0)" xlink:href="#au"/><use transform="matrix(0.04938271604938272,0,0,0.04938271604938272,7.851851851851852,0)" xlink:href="#av"/><use transform="matrix(0.04938271604938272,0,0,0.04938271604938272,16.74074074074074,0)" xlink:href="#aw"/><use transform="matrix(0.04938271604938272,0,0,0.04938271604938272,26.617283950617285,0)" xlink:href="#ax"/><use transform="matrix(0.04938271604938272,0,0,0.04938271604938272,32.49382716049383,0)" xlink:href="#ay"/><use transform="matrix(0.04938271604938272,0,0,0.04938271604938272,37.4320987654321,0)" xlink:href="#aw"/><use transform="matrix(0.04938271604938272,0,0,0.04938271604938272,47.308641975308646,0)" xlink:href="#az"/><use transform="matrix(0.04938271604938272,0,0,0.04938271604938272,57.18518518518519,0)" xlink:href="#aA"/></g><g id="i"><use transform="matrix(0.06172839506172839,0,0,0.06172839506172839,0,0)" xlink:href="#ah"/><use transform="matrix(0.06172839506172839,0,0,0.06172839506172839,6.172839506172839,0)" xlink:href="#ai"/></g><path fill="#3a414a" d="M166-85c3 67-44 102-111 85l1 64 29 4v9H6v-9l21-4v-217c-7-3-22 1-19-12h46l1 9c11-8 26-14 45-14 47 2 64 36 66 85zM56-13c53 14 83-14 78-72 7-53-33-79-78-60v132" id="aB"/><g id="j"><use transform="matrix(0.06172839506172839,0,0,0.06172839506172839,0,0)" xlink:href="#af"/><use transform="matrix(0.06172839506172839,0,0,0.06172839506172839,17.28395061728395,0)" xlink:href="#ag"/><use transform="matrix(0.06172839506172839,0,0,0.06172839506172839,27.098765432098766,0)" xlink:href="#aB"/></g><path fill="#333" d="M76-16l18 4V0H7v-12l18-4v-218l-17-4v-12h68v234" id="aC"/><path fill="#333" d="M31-163c51-5 127-20 127 40v107l17 4V0h-61l-4-13C82 13 12 12 12-46c0-51 46-52 95-53 9-45-22-69-57-44l-7 20H31v-40zM62-47c0 30 26 34 45 23v-59c-28 0-45 6-45 36" id="aD"/><path fill="#333" d="M15-82c-4-69 47-101 113-83l-1-69-17-4v-12h68v234l18 4V0h-63l-4-9C77 23 5-9 15-82zm112-66c-43-16-64 17-61 65 2 33 3 67 32 67 12 0 22-3 29-8v-124" id="aE"/><g id="k"><use transform="matrix(0.04938271604938272,0,0,0.04938271604938272,0,0)" xlink:href="#aC"/><use transform="matrix(0.04938271604938272,0,0,0.04938271604938272,4.938271604938272,0)" xlink:href="#av"/><use transform="matrix(0.04938271604938272,0,0,0.04938271604938272,13.827160493827162,0)" xlink:href="#aD"/><use transform="matrix(0.04938271604938272,0,0,0.04938271604938272,22.71604938271605,0)" xlink:href="#aE"/></g><path fill="#333" d="M102-142c-14-17-68-15-54 18 24 26 83 17 83 72 0 62-72 62-120 47v-45h12c4 23 16 37 43 37 35 0 39-37 9-46-31-9-65-19-64-61 0-52 59-55 108-45v43h-11" id="aF"/><path fill="#333" d="M168-150L102 4H81L12-149c-7-2-15-4-12-16h85v11l-20 5 42 94 38-94-19-5v-11h54v11" id="aG"/><g id="l"><use transform="matrix(0.04938271604938272,0,0,0.04938271604938272,0,0)" xlink:href="#aF"/><use transform="matrix(0.04938271604938272,0,0,0.04938271604938272,6.913580246913581,0)" xlink:href="#aD"/><use transform="matrix(0.04938271604938272,0,0,0.04938271604938272,15.80246913580247,0)" xlink:href="#aG"/><use transform="matrix(0.04938271604938272,0,0,0.04938271604938272,24.69135802469136,0)" xlink:href="#aA"/><use transform="matrix(0.04938271604938272,0,0,0.04938271604938272,32.543209876543216,0)" xlink:href="#aE"/></g><path fill="#333" d="M9 41c2-18 18-26 32-33C29 1 16-9 16-28l29-33c-21-9-31-25-31-51-2-56 61-65 111-53l39-20c13 12-9 24-14 36 35 54-17 114-90 92-17 34 27 28 56 28 36-1 61 12 60 46-2 46-39 62-91 62-38 0-71-6-76-38zm35-3c6 35 97 29 94-9-2-28-50-14-78-17-8 7-15 14-16 26zm20-150c0 22 4 40 23 40 20 0 24-17 24-40 0-24-4-40-24-40-19 0-23 17-23 40" id="aH"/><path fill="#333" d="M126-114c3-31-27-37-49-25v123l15 4V0H10v-12l16-4v-133l-16-5v-11h64l2 14c24-16 81-33 96 3 30-24 105-39 105 27v105l17 4V0h-82v-12l14-4v-98c4-33-27-37-51-24 5 35 0 82 2 122l17 4V0h-83v-12l15-4v-98" id="aI"/><g id="m"><use transform="matrix(0.04938271604938272,0,0,0.04938271604938272,0,0)" xlink:href="#aH"/><use transform="matrix(0.04938271604938272,0,0,0.04938271604938272,8.88888888888889,0)" xlink:href="#aD"/><use transform="matrix(0.04938271604938272,0,0,0.04938271604938272,17.77777777777778,0)" xlink:href="#aI"/><use transform="matrix(0.04938271604938272,0,0,0.04938271604938272,32.543209876543216,0)" xlink:href="#aA"/></g><path fill="#3a414a" d="M90-170c52 0 76 32 76 87 0 54-24 87-77 87-51 0-75-34-75-87 0-54 24-87 76-87zM89-10c39 0 46-35 46-73 0-39-7-73-46-73-39 1-44 34-44 73s6 72 44 73" id="aJ"/><path fill="#3a414a" d="M13-81c0-71 46-101 114-85l-1-72-28-4v-8h57v238c8 3 24-2 21 12h-47l-2-12C80 23 13-1 13-81zm77-74c-37 1-44 33-45 74 0 38 9 66 45 66 14 0 27-3 36-7v-130c-10-1-24-3-36-3" id="aK"/><g id="n"><use transform="matrix(0.06172839506172839,0,0,0.06172839506172839,0,0)" xlink:href="#ar"/><use transform="matrix(0.06172839506172839,0,0,0.06172839506172839,6.172839506172839,0)" xlink:href="#aJ"/><use transform="matrix(0.06172839506172839,0,0,0.06172839506172839,17.28395061728395,0)" xlink:href="#ag"/><use transform="matrix(0.06172839506172839,0,0,0.06172839506172839,27.098765432098766,0)" xlink:href="#aK"/></g><g id="o"><use transform="matrix(0.04938271604938272,0,0,0.04938271604938272,0,0)" xlink:href="#aC"/><use transform="matrix(0.04938271604938272,0,0,0.04938271604938272,4.938271604938272,0)" xlink:href="#av"/><use transform="matrix(0.04938271604938272,0,0,0.04938271604938272,13.827160493827162,0)" xlink:href="#aD"/><use transform="matrix(0.04938271604938272,0,0,0.04938271604938272,22.71604938271605,0)" xlink:href="#aE"/></g><g id="p"><use transform="matrix(0.04938271604938272,0,0,0.04938271604938272,0,0)" xlink:href="#aH"/><use transform="matrix(0.04938271604938272,0,0,0.04938271604938272,8.88888888888889,0)" xlink:href="#av"/></g><g id="q"><use transform="matrix(0.04938271604938272,0,0,0.04938271604938272,0,0)" xlink:href="#ax"/><use transform="matrix(0.04938271604938272,0,0,0.04938271604938272,5.8765432098765435,0)" xlink:href="#av"/></g><path fill="#3a414a" d="M161-154L85 37C75 66 49 86 8 75V39c18-2 6 24 29 21 30-4 38-32 47-58L21-153c-7-3-20 0-17-12h77v8l-26 4 45 116 43-116-26-4v-8h62v8" id="aL"/><g id="r"><use transform="matrix(0.06172839506172839,0,0,0.06172839506172839,0,0)" xlink:href="#aj"/><use transform="matrix(0.06172839506172839,0,0,0.06172839506172839,9.814814814814815,0)" xlink:href="#ai"/><use transform="matrix(0.06172839506172839,0,0,0.06172839506172839,20.925925925925924,0)" xlink:href="#aj"/><use transform="matrix(0.06172839506172839,0,0,0.06172839506172839,30.74074074074074,0)" xlink:href="#af"/><use transform="matrix(0.06172839506172839,0,0,0.06172839506172839,48.02469135802469,0)" xlink:href="#aL"/></g><g id="s"><use transform="matrix(0.06172839506172839,0,0,0.06172839506172839,0,0)" xlink:href="#ap"/><use transform="matrix(0.06172839506172839,0,0,0.06172839506172839,7.345679012345679,0)" xlink:href="#aJ"/><use transform="matrix(0.06172839506172839,0,0,0.06172839506172839,18.45679012345679,0)" xlink:href="#aJ"/><use transform="matrix(0.06172839506172839,0,0,0.06172839506172839,29.567901234567902,0)" xlink:href="#af"/></g><g id="t"><use transform="matrix(0.06172839506172839,0,0,0.06172839506172839,0,0)" xlink:href="#an"/><use transform="matrix(0.06172839506172839,0,0,0.06172839506172839,9.814814814814815,0)" xlink:href="#ao"/><use transform="matrix(0.06172839506172839,0,0,0.06172839506172839,20.925925925925924,0)" xlink:href="#aj"/><use transform="matrix(0.06172839506172839,0,0,0.06172839506172839,30.74074074074074,0)" xlink:href="#at"/><use transform="matrix(0.06172839506172839,0,0,0.06172839506172839,39.382716049382715,0)" xlink:href="#aq"/></g><path fill="#3a414a" d="M60-80l68-73c-7-3-20 0-17-12h58c3 13-13 9-20 12l-47 48 60 93c7 3 21-1 18 12h-68c-3-12 9-9 15-12L82-83 60-60v48c7 3 21-1 18 12H10v-8l21-4v-226l-24-4v-8h53v170" id="aM"/><g id="u"><use transform="matrix(0.06172839506172839,0,0,0.06172839506172839,0,0)" xlink:href="#ar"/><use transform="matrix(0.06172839506172839,0,0,0.06172839506172839,6.172839506172839,0)" xlink:href="#aJ"/><use transform="matrix(0.06172839506172839,0,0,0.06172839506172839,17.28395061728395,0)" xlink:href="#an"/><use transform="matrix(0.06172839506172839,0,0,0.06172839506172839,27.098765432098766,0)" xlink:href="#aM"/><use transform="matrix(0.06172839506172839,0,0,0.06172839506172839,38.20987654320987,0)" xlink:href="#aj"/><use transform="matrix(0.06172839506172839,0,0,0.06172839506172839,48.02469135802469,0)" xlink:href="#aK"/></g><g id="v"><use transform="matrix(0.06172839506172839,0,0,0.06172839506172839,0,0)" xlink:href="#an"/><use transform="matrix(0.06172839506172839,0,0,0.06172839506172839,9.814814814814815,0)" xlink:href="#ao"/><use transform="matrix(0.06172839506172839,0,0,0.06172839506172839,20.925925925925924,0)" xlink:href="#aj"/><use transform="matrix(0.06172839506172839,0,0,0.06172839506172839,30.74074074074074,0)" xlink:href="#at"/><use transform="matrix(0.06172839506172839,0,0,0.06172839506172839,39.382716049382715,0)" xlink:href="#aq"/></g><path fill="#333" d="M132-132c-21 0-37 9-50 16v100l26 4V0H10v-12l21-4v-133l-21-5v-11h69l2 34c17-18 35-41 71-40v61c-17 3-14-14-20-22" id="aN"/><path fill="#333" d="M81 5L15-149c-7-2-13-5-11-16h84v11l-20 5 39 91 35-91-19-5v-11h53c2 11-4 13-11 15C134-81 111-5 75 58 65 77 34 83 8 74V32h11c0 24 29 35 43 12 7-11 13-25 19-39" id="aO"/><g id="w"><use transform="matrix(0.04938271604938272,0,0,0.04938271604938272,0,0)" xlink:href="#ax"/><use transform="matrix(0.04938271604938272,0,0,0.04938271604938272,5.8765432098765435,0)" xlink:href="#aN"/><use transform="matrix(0.04938271604938272,0,0,0.04938271604938272,13.728395061728396,0)" xlink:href="#aO"/></g><g id="x"><use transform="matrix(0.04938271604938272,0,0,0.04938271604938272,0,0)" xlink:href="#ax"/><use transform="matrix(0.04938271604938272,0,0,0.04938271604938272,5.8765432098765435,0)" xlink:href="#av"/></g><path fill="#333" d="M77-79l64-71-17-4v-11h63v11c-32 3-40 30-59 46l57 92 15 4V0h-80c-2-11 3-15 10-16L97-74 77-60v44l16 4V0H10v-12l16-4v-218l-17-4v-12h68v171" id="aP"/><g id="y"><use transform="matrix(0.04938271604938272,0,0,0.04938271604938272,0,0)" xlink:href="#az"/><use transform="matrix(0.04938271604938272,0,0,0.04938271604938272,9.876543209876544,0)" xlink:href="#aw"/><use transform="matrix(0.04938271604938272,0,0,0.04938271604938272,19.75308641975309,0)" xlink:href="#aC"/><use transform="matrix(0.04938271604938272,0,0,0.04938271604938272,24.69135802469136,0)" xlink:href="#av"/><use transform="matrix(0.04938271604938272,0,0,0.04938271604938272,33.580246913580254,0)" xlink:href="#au"/><use transform="matrix(0.04938271604938272,0,0,0.04938271604938272,41.43209876543211,0)" xlink:href="#aP"/></g><path fill="#333" d="M127-114c3-31-26-38-50-25v123l15 4V0H10v-12l16-4v-218l-17-4v-12h68l-1 99c31-23 102-32 102 30v105l17 4V0h-82v-12l14-4v-98" id="aQ"/><g id="z"><use transform="matrix(0.04938271604938272,0,0,0.04938271604938272,0,0)" xlink:href="#au"/><use transform="matrix(0.04938271604938272,0,0,0.04938271604938272,7.851851851851852,0)" xlink:href="#aQ"/><use transform="matrix(0.04938271604938272,0,0,0.04938271604938272,17.728395061728396,0)" xlink:href="#aA"/><use transform="matrix(0.04938271604938272,0,0,0.04938271604938272,25.58024691358025,0)" xlink:href="#aF"/><use transform="matrix(0.04938271604938272,0,0,0.04938271604938272,32.49382716049383,0)" xlink:href="#ax"/></g><g id="A"><use transform="matrix(0.06172839506172839,0,0,0.06172839506172839,0,0)" xlink:href="#af"/><use transform="matrix(0.06172839506172839,0,0,0.06172839506172839,17.28395061728395,0)" xlink:href="#ah"/><use transform="matrix(0.06172839506172839,0,0,0.06172839506172839,23.456790123456788,0)" xlink:href="#ai"/><use transform="matrix(0.06172839506172839,0,0,0.06172839506172839,34.5679012345679,0)" xlink:href="#ah"/><use transform="matrix(0.06172839506172839,0,0,0.06172839506172839,40.74074074074074,0)" xlink:href="#am"/><use transform="matrix(0.06172839506172839,0,0,0.06172839506172839,51.85185185185185,0)" xlink:href="#ag"/><use transform="matrix(0.06172839506172839,0,0,0.06172839506172839,61.666666666666664,0)" xlink:href="#af"/><use transform="matrix(0.06172839506172839,0,0,0.06172839506172839,78.9506172839506,0)" xlink:href="#aj"/></g><g id="B"><use transform="matrix(0.06172839506172839,0,0,0.06172839506172839,0,0)" xlink:href="#ap"/><use transform="matrix(0.06172839506172839,0,0,0.06172839506172839,7.345679012345679,0)" xlink:href="#aJ"/><use transform="matrix(0.06172839506172839,0,0,0.06172839506172839,18.45679012345679,0)" xlink:href="#ar"/><use transform="matrix(0.06172839506172839,0,0,0.06172839506172839,24.62962962962963,0)" xlink:href="#ar"/></g><g id="C"><use transform="matrix(0.06172839506172839,0,0,0.06172839506172839,0,0)" xlink:href="#aK"/><use transform="matrix(0.06172839506172839,0,0,0.06172839506172839,11.11111111111111,0)" xlink:href="#ah"/><use transform="matrix(0.06172839506172839,0,0,0.06172839506172839,17.28395061728395,0)" xlink:href="#aj"/></g><path fill="#3a414a" d="M53-14c58 12 82-15 82-73 0-52-35-77-82-58v131zM89 4C64 4 42-2 24-9v-229l-24-4v-8h53l-1 94c48-33 114-4 114 69 0 57-23 91-77 91" id="aR"/><g id="D"><use transform="matrix(0.06172839506172839,0,0,0.06172839506172839,0,0)" xlink:href="#an"/><use transform="matrix(0.06172839506172839,0,0,0.06172839506172839,9.814814814814815,0)" xlink:href="#aJ"/><use transform="matrix(0.06172839506172839,0,0,0.06172839506172839,20.925925925925924,0)" xlink:href="#af"/><use transform="matrix(0.06172839506172839,0,0,0.06172839506172839,38.20987654320987,0)" xlink:href="#aR"/><use transform="matrix(0.06172839506172839,0,0,0.06172839506172839,49.32098765432099,0)" xlink:href="#ag"/><use transform="matrix(0.06172839506172839,0,0,0.06172839506172839,59.135802469135804,0)" xlink:href="#aq"/></g><path fill="#3a414a" d="M103-236c-39-15-35 32-34 71h44v15H69v136l35 6v8H15v-8l25-6v-136H11v-9l29-7c-6-59 23-100 80-84v36c-15 2-12-14-17-22" id="aS"/><g id="E"><use transform="matrix(0.06172839506172839,0,0,0.06172839506172839,0,0)" xlink:href="#aS"/><use transform="matrix(0.06172839506172839,0,0,0.06172839506172839,7.345679012345679,0)" xlink:href="#ah"/><use transform="matrix(0.06172839506172839,0,0,0.06172839506172839,13.518518518518519,0)" xlink:href="#ai"/><use transform="matrix(0.06172839506172839,0,0,0.06172839506172839,24.62962962962963,0)" xlink:href="#ah"/><use transform="matrix(0.06172839506172839,0,0,0.06172839506172839,30.80246913580247,0)" xlink:href="#at"/><use transform="matrix(0.06172839506172839,0,0,0.06172839506172839,39.44444444444444,0)" xlink:href="#ao"/></g><path fill="#333" d="M107-230c-31-13-29 30-29 65h34v18H78v131l27 4V0H10v-12l18-4v-131H3v-12l25-7c-8-66 31-98 95-84v39h-11" id="aT"/><g id="F"><use transform="matrix(0.04938271604938272,0,0,0.04938271604938272,0,0)" xlink:href="#aT"/><use transform="matrix(0.04938271604938272,0,0,0.04938271604938272,5.8765432098765435,0)" xlink:href="#ay"/><use transform="matrix(0.04938271604938272,0,0,0.04938271604938272,10.814814814814817,0)" xlink:href="#aw"/><use transform="matrix(0.04938271604938272,0,0,0.04938271604938272,20.69135802469136,0)" xlink:href="#ay"/><use transform="matrix(0.04938271604938272,0,0,0.04938271604938272,25.629629629629633,0)" xlink:href="#aF"/><use transform="matrix(0.04938271604938272,0,0,0.04938271604938272,32.543209876543216,0)" xlink:href="#aQ"/><use transform="matrix(0.04938271604938272,0,0,0.04938271604938272,42.41975308641976,0)" xlink:href="#aA"/><use transform="matrix(0.04938271604938272,0,0,0.04938271604938272,50.271604938271615,0)" xlink:href="#aE"/></g><path fill="#333" d="M186-86c2 69-46 103-114 85l1 62 25 4v12H5V65l18-4v-210l-18-5v-11h67v8c12-8 26-13 46-13 49 2 67 30 68 84zm-83 71c28 0 31-33 31-69 0-34-2-66-30-66-12 0-23 3-31 7v124c9 2 20 4 30 4" id="aU"/><g id="G"><use transform="matrix(0.04938271604938272,0,0,0.04938271604938272,0,0)" xlink:href="#aU"/><use transform="matrix(0.04938271604938272,0,0,0.04938271604938272,9.876543209876544,0)" xlink:href="#ay"/><use transform="matrix(0.04938271604938272,0,0,0.04938271604938272,14.814814814814817,0)" xlink:href="#au"/><use transform="matrix(0.04938271604938272,0,0,0.04938271604938272,22.666666666666668,0)" xlink:href="#aP"/></g><g id="H"><use transform="matrix(0.04938271604938272,0,0,0.04938271604938272,0,0)" xlink:href="#ay"/><use transform="matrix(0.04938271604938272,0,0,0.04938271604938272,4.938271604938272,0)" xlink:href="#ax"/><use transform="matrix(0.04938271604938272,0,0,0.04938271604938272,10.814814814814817,0)" xlink:href="#aA"/><use transform="matrix(0.04938271604938272,0,0,0.04938271604938272,18.666666666666668,0)" xlink:href="#aI"/></g><g id="I"><use transform="matrix(0.04938271604938272,0,0,0.04938271604938272,0,0)" xlink:href="#av"/><use transform="matrix(0.04938271604938272,0,0,0.04938271604938272,8.88888888888889,0)" xlink:href="#aU"/><use transform="matrix(0.04938271604938272,0,0,0.04938271604938272,18.765432098765434,0)" xlink:href="#aA"/><use transform="matrix(0.04938271604938272,0,0,0.04938271604938272,26.617283950617285,0)" xlink:href="#aw"/></g><g id="J"><use transform="matrix(0.04938271604938272,0,0,0.04938271604938272,0,0)" xlink:href="#aI"/><use transform="matrix(0.04938271604938272,0,0,0.04938271604938272,14.765432098765434,0)" xlink:href="#aD"/><use transform="matrix(0.04938271604938272,0,0,0.04938271604938272,23.654320987654323,0)" xlink:href="#aU"/></g><g id="K"><use transform="matrix(0.04938271604938272,0,0,0.04938271604938272,0,0)" xlink:href="#aF"/><use transform="matrix(0.04938271604938272,0,0,0.04938271604938272,6.913580246913581,0)" xlink:href="#az"/><use transform="matrix(0.04938271604938272,0,0,0.04938271604938272,16.790123456790127,0)" xlink:href="#au"/><use transform="matrix(0.04938271604938272,0,0,0.04938271604938272,24.641975308641978,0)" xlink:href="#au"/><use transform="matrix(0.04938271604938272,0,0,0.04938271604938272,32.49382716049383,0)" xlink:href="#aA"/><use transform="matrix(0.04938271604938272,0,0,0.04938271604938272,40.345679012345684,0)" xlink:href="#aF"/><use transform="matrix(0.04938271604938272,0,0,0.04938271604938272,47.25925925925927,0)" xlink:href="#aF"/></g><g id="L"><use transform="matrix(0.04938271604938272,0,0,0.04938271604938272,0,0)" xlink:href="#aE"/><use transform="matrix(0.04938271604938272,0,0,0.04938271604938272,9.876543209876544,0)" xlink:href="#av"/></g><g id="M"><use transform="matrix(0.04938271604938272,0,0,0.04938271604938272,0,0)" xlink:href="#aw"/><use transform="matrix(0.04938271604938272,0,0,0.04938271604938272,9.876543209876544,0)" xlink:href="#av"/><use transform="matrix(0.04938271604938272,0,0,0.04938271604938272,18.765432098765434,0)" xlink:href="#ax"/><use transform="matrix(0.04938271604938272,0,0,0.04938271604938272,24.641975308641978,0)" xlink:href="#aQ"/><use transform="matrix(0.04938271604938272,0,0,0.04938271604938272,34.51851851851852,0)" xlink:href="#ay"/><use transform="matrix(0.04938271604938272,0,0,0.04938271604938272,39.45679012345679,0)" xlink:href="#aw"/><use transform="matrix(0.04938271604938272,0,0,0.04938271604938272,49.333333333333336,0)" xlink:href="#aH"/></g><path fill="#333" d="M154-149l38 94 32-94-20-5v-11h54v11l-13 4L190 4h-21l-38-93L93 4H72L13-149c-7-2-15-4-12-16h82v11l-20 5 36 94 38-94h17" id="aV"/><path fill="#333" d="M21 4H-4l83-241h25" id="aW"/><g id="N"><use transform="matrix(0.04938271604938272,0,0,0.04938271604938272,0,0)" xlink:href="#aV"/><use transform="matrix(0.04938271604938272,0,0,0.04938271604938272,12.790123456790125,0)" xlink:href="#av"/><use transform="matrix(0.04938271604938272,0,0,0.04938271604938272,21.679012345679013,0)" xlink:href="#aw"/><use transform="matrix(0.04938271604938272,0,0,0.04938271604938272,31.555555555555557,0)" xlink:href="#aW"/><use transform="matrix(0.04938271604938272,0,0,0.04938271604938272,36.49382716049383,0)" xlink:href="#aC"/><use transform="matrix(0.04938271604938272,0,0,0.04938271604938272,41.4320987654321,0)" xlink:href="#av"/><use transform="matrix(0.04938271604938272,0,0,0.04938271604938272,50.32098765432099,0)" xlink:href="#aF"/><use transform="matrix(0.04938271604938272,0,0,0.04938271604938272,57.23456790123457,0)" xlink:href="#ax"/></g><g id="O"><use transform="matrix(0.04938271604938272,0,0,0.04938271604938272,0,0)" xlink:href="#aH"/><use transform="matrix(0.04938271604938272,0,0,0.04938271604938272,8.88888888888889,0)" xlink:href="#aD"/><use transform="matrix(0.04938271604938272,0,0,0.04938271604938272,17.77777777777778,0)" xlink:href="#aI"/><use transform="matrix(0.04938271604938272,0,0,0.04938271604938272,32.543209876543216,0)" xlink:href="#aA"/></g><g id="P"><use transform="matrix(0.06172839506172839,0,0,0.06172839506172839,0,0)" xlink:href="#am"/><use transform="matrix(0.06172839506172839,0,0,0.06172839506172839,11.11111111111111,0)" xlink:href="#ag"/><use transform="matrix(0.06172839506172839,0,0,0.06172839506172839,20.925925925925924,0)" xlink:href="#af"/><use transform="matrix(0.06172839506172839,0,0,0.06172839506172839,38.20987654320987,0)" xlink:href="#aj"/></g><g id="Q"><use transform="matrix(0.06172839506172839,0,0,0.06172839506172839,0,0)" xlink:href="#aS"/><use transform="matrix(0.06172839506172839,0,0,0.06172839506172839,7.345679012345679,0)" xlink:href="#ah"/><use transform="matrix(0.06172839506172839,0,0,0.06172839506172839,13.518518518518519,0)" xlink:href="#ai"/><use transform="matrix(0.06172839506172839,0,0,0.06172839506172839,24.62962962962963,0)" xlink:href="#ah"/><use transform="matrix(0.06172839506172839,0,0,0.06172839506172839,30.80246913580247,0)" xlink:href="#at"/><use transform="matrix(0.06172839506172839,0,0,0.06172839506172839,39.44444444444444,0)" xlink:href="#ao"/><use transform="matrix(0.06172839506172839,0,0,0.06172839506172839,50.55555555555556,0)" xlink:href="#aj"/><use transform="matrix(0.06172839506172839,0,0,0.06172839506172839,60.370370370370374,0)" xlink:href="#aK"/></g><g id="R"><use transform="matrix(0.06172839506172839,0,0,0.06172839506172839,0,0)" xlink:href="#aB"/><use transform="matrix(0.06172839506172839,0,0,0.06172839506172839,11.11111111111111,0)" xlink:href="#ag"/><use transform="matrix(0.06172839506172839,0,0,0.06172839506172839,20.925925925925924,0)" xlink:href="#ak"/><use transform="matrix(0.06172839506172839,0,0,0.06172839506172839,32.03703703703704,0)" xlink:href="#at"/><use transform="matrix(0.06172839506172839,0,0,0.06172839506172839,40.67901234567901,0)" xlink:href="#aj"/></g><path fill="#3a414a" d="M108-235c-52 28-62 95-58 178 3 56 21 97 58 119v15C7 49-17-153 67-223c12-10 25-19 41-27v15" id="aX"/><path fill="#3a414a" d="M12-250C113-222 137-19 52 49 40 59 28 69 12 77V62C56 37 70-16 70-87c0-70-13-123-58-148v-15" id="aY"/><g id="S"><use transform="matrix(0.06172839506172839,0,0,0.06172839506172839,0,0)" xlink:href="#aX"/><use transform="matrix(0.06172839506172839,0,0,0.06172839506172839,7.345679012345679,0)" xlink:href="#ah"/><use transform="matrix(0.06172839506172839,0,0,0.06172839506172839,13.518518518518519,0)" xlink:href="#ai"/><use transform="matrix(0.06172839506172839,0,0,0.06172839506172839,24.62962962962963,0)" xlink:href="#aq"/><use transform="matrix(0.06172839506172839,0,0,0.06172839506172839,30.80246913580247,0)" xlink:href="#aj"/><use transform="matrix(0.06172839506172839,0,0,0.06172839506172839,40.617283950617285,0)" xlink:href="#ap"/><use transform="matrix(0.06172839506172839,0,0,0.06172839506172839,47.96296296296296,0)" xlink:href="#ap"/><use transform="matrix(0.06172839506172839,0,0,0.06172839506172839,55.30864197530864,0)" xlink:href="#ak"/><use transform="matrix(0.06172839506172839,0,0,0.06172839506172839,66.41975308641975,0)" xlink:href="#aB"/><use transform="matrix(0.06172839506172839,0,0,0.06172839506172839,77.53086419753086,0)" xlink:href="#aq"/><use transform="matrix(0.06172839506172839,0,0,0.06172839506172839,83.7037037037037,0)" xlink:href="#aY"/></g><path fill="#333" d="M72-18c49 15 64-22 62-69-1-34-4-62-34-63-10-1-23 2-28 6v126zm33 22C77 4 48-3 21-8v-226l-16-4v-12h67c-1 31 2 66-2 94 11-8 28-14 47-14 51 0 70 31 69 83-1 55-26 91-81 91" id="aZ"/><g id="T"><use transform="matrix(0.04938271604938272,0,0,0.04938271604938272,0,0)" xlink:href="#aZ"/><use transform="matrix(0.04938271604938272,0,0,0.04938271604938272,9.876543209876544,0)" xlink:href="#aD"/><use transform="matrix(0.04938271604938272,0,0,0.04938271604938272,18.765432098765434,0)" xlink:href="#au"/><use transform="matrix(0.04938271604938272,0,0,0.04938271604938272,26.617283950617285,0)" xlink:href="#aP"/></g><g id="U"><use transform="matrix(0.04938271604938272,0,0,0.04938271604938272,0,0)" xlink:href="#aI"/><use transform="matrix(0.04938271604938272,0,0,0.04938271604938272,14.765432098765434,0)" xlink:href="#aD"/><use transform="matrix(0.04938271604938272,0,0,0.04938271604938272,23.654320987654323,0)" xlink:href="#ay"/><use transform="matrix(0.04938271604938272,0,0,0.04938271604938272,28.592592592592595,0)" xlink:href="#aw"/></g><g id="V"><use transform="matrix(0.04938271604938272,0,0,0.04938271604938272,0,0)" xlink:href="#aI"/><use transform="matrix(0.04938271604938272,0,0,0.04938271604938272,14.765432098765434,0)" xlink:href="#aA"/><use transform="matrix(0.04938271604938272,0,0,0.04938271604938272,22.617283950617285,0)" xlink:href="#aw"/><use transform="matrix(0.04938271604938272,0,0,0.04938271604938272,32.49382716049383,0)" xlink:href="#az"/></g><g id="W"><use transform="matrix(0.04938271604938272,0,0,0.04938271604938272,0,0)" xlink:href="#aF"/><use transform="matrix(0.04938271604938272,0,0,0.04938271604938272,6.913580246913581,0)" xlink:href="#ax"/><use transform="matrix(0.04938271604938272,0,0,0.04938271604938272,12.790123456790125,0)" xlink:href="#aD"/><use transform="matrix(0.04938271604938272,0,0,0.04938271604938272,21.679012345679013,0)" xlink:href="#aN"/><use transform="matrix(0.04938271604938272,0,0,0.04938271604938272,29.53086419753086,0)" xlink:href="#ax"/></g><g id="X"><use transform="matrix(0.04938271604938272,0,0,0.04938271604938272,0,0)" xlink:href="#aw"/><use transform="matrix(0.04938271604938272,0,0,0.04938271604938272,9.876543209876544,0)" xlink:href="#aA"/><use transform="matrix(0.04938271604938272,0,0,0.04938271604938272,17.728395061728396,0)" xlink:href="#aV"/></g><g id="Y"><use transform="matrix(0.04938271604938272,0,0,0.04938271604938272,0,0)" xlink:href="#aZ"/><use transform="matrix(0.04938271604938272,0,0,0.04938271604938272,9.876543209876544,0)" xlink:href="#aD"/><use transform="matrix(0.04938271604938272,0,0,0.04938271604938272,18.765432098765434,0)" xlink:href="#au"/><use transform="matrix(0.04938271604938272,0,0,0.04938271604938272,26.617283950617285,0)" xlink:href="#aP"/></g><path fill="#333" d="M5-154v-11h89v11l-19 5 24 37 32-37-16-5v-11h56v11l-15 4-46 54 52 81 16 4V0H90v-11l18-4-29-45-38 45 17 4V0H1v-11l15-3 53-62-48-73" id="ba"/><g id="Z"><use transform="matrix(0.04938271604938272,0,0,0.04938271604938272,0,0)" xlink:href="#aw"/><use transform="matrix(0.04938271604938272,0,0,0.04938271604938272,9.876543209876544,0)" xlink:href="#aA"/><use transform="matrix(0.04938271604938272,0,0,0.04938271604938272,17.728395061728396,0)" xlink:href="#ba"/><use transform="matrix(0.04938271604938272,0,0,0.04938271604938272,26.617283950617285,0)" xlink:href="#ax"/></g><g id="aa"><use transform="matrix(0.04938271604938272,0,0,0.04938271604938272,0,0)" xlink:href="#aT"/><use transform="matrix(0.04938271604938272,0,0,0.04938271604938272,5.8765432098765435,0)" xlink:href="#aD"/><use transform="matrix(0.04938271604938272,0,0,0.04938271604938272,14.765432098765434,0)" xlink:href="#ay"/><use transform="matrix(0.04938271604938272,0,0,0.04938271604938272,19.703703703703706,0)" xlink:href="#aC"/><use transform="matrix(0.04938271604938272,0,0,0.04938271604938272,24.641975308641978,0)" xlink:href="#aA"/><use transform="matrix(0.04938271604938272,0,0,0.04938271604938272,32.49382716049383,0)" xlink:href="#aE"/></g><g id="ab"><use transform="matrix(0.06172839506172839,0,0,0.06172839506172839,0,0)" xlink:href="#at"/><use transform="matrix(0.06172839506172839,0,0,0.06172839506172839,8.641975308641975,0)" xlink:href="#ag"/><use transform="matrix(0.06172839506172839,0,0,0.06172839506172839,18.45679012345679,0)" xlink:href="#as"/><use transform="matrix(0.06172839506172839,0,0,0.06172839506172839,29.567901234567902,0)" xlink:href="#aj"/></g><g id="ac"><use transform="matrix(0.04938271604938272,0,0,0.04938271604938272,0,0)" xlink:href="#aF"/><use transform="matrix(0.04938271604938272,0,0,0.04938271604938272,6.913580246913581,0)" xlink:href="#aD"/><use transform="matrix(0.04938271604938272,0,0,0.04938271604938272,15.80246913580247,0)" xlink:href="#aG"/><use transform="matrix(0.04938271604938272,0,0,0.04938271604938272,24.69135802469136,0)" xlink:href="#aA"/></g><g id="ad"><use transform="matrix(0.04938271604938272,0,0,0.04938271604938272,0,0)" xlink:href="#aH"/><use transform="matrix(0.04938271604938272,0,0,0.04938271604938272,8.88888888888889,0)" xlink:href="#aD"/><use transform="matrix(0.04938271604938272,0,0,0.04938271604938272,17.77777777777778,0)" xlink:href="#aI"/><use transform="matrix(0.04938271604938272,0,0,0.04938271604938272,32.543209876543216,0)" xlink:href="#aA"/></g><g id="ae"><use transform="matrix(0.04938271604938272,0,0,0.04938271604938272,0,0)" xlink:href="#aD"/><use transform="matrix(0.04938271604938272,0,0,0.04938271604938272,8.88888888888889,0)" xlink:href="#au"/><use transform="matrix(0.04938271604938272,0,0,0.04938271604938272,16.74074074074074,0)" xlink:href="#ax"/><use transform="matrix(0.04938271604938272,0,0,0.04938271604938272,22.617283950617285,0)" xlink:href="#ay"/><use transform="matrix(0.04938271604938272,0,0,0.04938271604938272,27.555555555555557,0)" xlink:href="#av"/><use transform="matrix(0.04938271604938272,0,0,0.04938271604938272,36.44444444444444,0)" xlink:href="#aw"/></g></defs></g></svg>